<?xml version="1.0" encoding="utf-8"?>
<!DOCTYPE svg PUBLIC "-//W3C//DTD SVG 1.1//EN" "http://www.w3.org/Graphics/SVG/1.1/DTD/svg11.dtd">
<svg version="1.1" xmlns="http://www.w3.org/2000/svg" xmlns:xlink="http://www.w3.org/1999/xlink" 
	 width="500px" height="500px" viewBox="55 10 80 80"
	 xml:space="preserve">
<g id="logo">
	<path fill="#1D1D1B" d="M94.962,88.506L94.962,88.506c-21.102,0.001-38.27-17.167-38.271-38.269
		c0-21.102,17.167-38.27,38.269-38.271c10.222,0,19.832,3.98,27.06,11.209c7.229,7.228,11.21,16.838,11.21,27.06
		C133.23,71.338,116.063,88.506,94.962,88.506z M94.96,15.518c-19.143,0-34.717,15.575-34.717,34.719
		c0,19.145,15.575,34.72,34.719,34.719c19.143,0,34.717-15.575,34.717-34.72c0-9.273-3.611-17.992-10.169-24.549
		C112.953,19.129,104.234,15.518,94.96,15.518z"/>
	<path fill="#1D1D1B" d="M97.549,70.722l1.266,0c0.834,0,1.629-0.062,2.385-0.178l4.71-17.464
		c-0.922-0.652-2.004-1.143-3.207-1.477L97.549,70.722z"/>
	<polygon fill="#1D1D1B" points="98.452,33.478 87.534,73.972 91.136,73.971 102.055,33.478 				"/>
	<path fill="#1D1D1B" d="M105.066,49.349c4.636-1.547,7.461-5.713,7.461-10.754c-0.001-7.865-5.916-12.501-13.846-12.501h-17.61
		l0.001,47.854l3.593,0.03l0.035-44.657h13.577c5.781,0,10.618,2.688,10.619,9.275c0,6.587-4.838,9.275-10.618,9.275h-0.103
		l-0.869,3.225h1.508c6.521,0,10.822,3.63,10.822,9.813c0,6.184-4.302,9.814-10.822,9.814h-6.802l-0.869,3.225h8.075
		c8.401,0,14.047-4.502,14.047-13.039C113.266,55.329,110.243,51.162,105.066,49.349z"/>
</g>
</svg>
