<svg id="Layer_1" data-name="Layer 1" xmlns="http://www.w3.org/2000/svg" viewBox="0 0 345 110.55"><defs><style>.cls-1{fill:#1a1a1a;}.cls-2{fill:#f7931e;}</style></defs><title>bright_inventions_logo_black</title><path class="cls-1" d="M112.47,207.74a16,16,0,0,1,6.07,6.06,17.93,17.93,0,0,1,0,17.21,16,16,0,0,1-6.07,6.06,17.88,17.88,0,0,1-17.11.06,15.88,15.88,0,0,1-6.07-5.94A16.81,16.81,0,0,1,87,222.74V193.58a1.73,1.73,0,0,1,.51-1.32,1.8,1.8,0,0,1,1.3-.49,1.68,1.68,0,0,1,1.81,1.81v18.84a14,14,0,0,1,5.46-5,16.28,16.28,0,0,1,7.76-1.84A17.07,17.07,0,0,1,112.47,207.74Zm-1.87,26.38a13.09,13.09,0,0,0,4.77-4.86,14.42,14.42,0,0,0,0-13.77,12.76,12.76,0,0,0-4.77-4.82,13.93,13.93,0,0,0-13.52,0,12.54,12.54,0,0,0-4.74,4.82,14.64,14.64,0,0,0,0,13.77,12.86,12.86,0,0,0,4.74,4.86,13.73,13.73,0,0,0,13.52,0Z" transform="translate(-87 -191.77)"/><path class="cls-1" d="M148.39,207.53a1.56,1.56,0,0,1-.06.48,1.71,1.71,0,0,1-.58.94,1.82,1.82,0,0,1-1.05.27,10.78,10.78,0,0,1-1.42-.12,11.33,11.33,0,0,0-6.85,1.14,9.49,9.49,0,0,0-3.69,3.5,9.67,9.67,0,0,0-1.32,5V237.1a1.78,1.78,0,0,1-.49,1.3,1.73,1.73,0,0,1-1.32.51,1.75,1.75,0,0,1-1.81-1.81V207.71a1.75,1.75,0,0,1,.51-1.33,1.82,1.82,0,0,1,1.3-.48,1.68,1.68,0,0,1,1.81,1.81v3.74a12.79,12.79,0,0,1,4.46-4.35,11.69,11.69,0,0,1,5.92-1.56Q148.39,205.54,148.39,207.53Z" transform="translate(-87 -191.77)"/><path class="cls-1" d="M158,238.4a1.76,1.76,0,0,1-.51-1.3V207.71a1.75,1.75,0,0,1,.51-1.33,1.83,1.83,0,0,1,1.3-.48,1.66,1.66,0,0,1,1.81,1.81V237.1a1.82,1.82,0,0,1-.48,1.3,1.75,1.75,0,0,1-1.33.51A1.77,1.77,0,0,1,158,238.4Z" transform="translate(-87 -191.77)"/><path class="cls-1" d="M196.94,207.71a15.46,15.46,0,0,1,6,6,17.59,17.59,0,0,1,2.14,8.73v11.83a17.91,17.91,0,0,1-2.17,8.78,16.18,16.18,0,0,1-14.43,8.48,18.57,18.57,0,0,1-8.36-1.78,17.36,17.36,0,0,1-6-4.86,2,2,0,0,1-.48-1.21,1.32,1.32,0,0,1,.6-1.14,1.71,1.71,0,0,1,1.09-.37,1.86,1.86,0,0,1,1.56.79,14.22,14.22,0,0,0,4.92,3.8,15.36,15.36,0,0,0,6.67,1.39,12.42,12.42,0,0,0,6.64-1.81,12.83,12.83,0,0,0,4.65-5,14.79,14.79,0,0,0,1.69-7.09v-2.66a13.08,13.08,0,0,1-5.22,5.61,15.39,15.39,0,0,1-8,2.06,17.56,17.56,0,0,1-8.72-2.15,15.4,15.4,0,0,1-6-6,17.46,17.46,0,0,1-2.17-8.72,17.17,17.17,0,0,1,2.23-8.7,16.05,16.05,0,0,1,6.1-6,18.3,18.3,0,0,1,17.29,0ZM195,234.18a12.27,12.27,0,0,0,4.71-4.77,14.1,14.1,0,0,0,1.69-7,14.31,14.31,0,0,0-1.69-7,12.12,12.12,0,0,0-4.71-4.79,13.47,13.47,0,0,0-6.82-1.72,13.62,13.62,0,0,0-6.88,1.72,12.12,12.12,0,0,0-4.71,4.79,14.42,14.42,0,0,0-1.69,7,14.21,14.21,0,0,0,1.69,7,12.27,12.27,0,0,0,4.71,4.77,13.72,13.72,0,0,0,6.88,1.72A13.58,13.58,0,0,0,195,234.18Z" transform="translate(-87 -191.77)"/><path class="cls-1" d="M237.08,207.29a12.91,12.91,0,0,1,5.43,5.28,16.57,16.57,0,0,1,2,8.3V237.1a1.82,1.82,0,1,1-3.63,0V220.87c0-3.83-1.07-6.74-3.22-8.76a11.85,11.85,0,0,0-8.42-3,13.56,13.56,0,0,0-5.83,1.23,10.16,10.16,0,0,0-4.13,3.44,8.39,8.39,0,0,0-1.51,4.86V237.1a1.78,1.78,0,0,1-.49,1.3,1.73,1.73,0,0,1-1.32.51,1.75,1.75,0,0,1-1.81-1.81V193.58a1.73,1.73,0,0,1,.51-1.32,1.78,1.78,0,0,1,1.3-.49,1.69,1.69,0,0,1,1.81,1.81v17.27a14.27,14.27,0,0,1,5-4,14.8,14.8,0,0,1,6.46-1.42A16.73,16.73,0,0,1,237.08,207.29Z" transform="translate(-87 -191.77)"/><path class="cls-1" d="M271,235.75a1.83,1.83,0,0,1,.52,1.35,1.76,1.76,0,0,1-.52,1.3,1.82,1.82,0,0,1-1.35.51h-1.39a11.6,11.6,0,0,1-5.92-1.5,10.64,10.64,0,0,1-4-4.14,12,12,0,0,1-1.45-5.94v-17h-4.71a1.62,1.62,0,0,1-1.18-.45,1.76,1.76,0,0,1,0-2.35,1.63,1.63,0,0,1,1.18-.46h4.71v-9.83a1.83,1.83,0,0,1,.51-1.36,1.78,1.78,0,0,1,1.3-.52,1.86,1.86,0,0,1,1.36.52,1.83,1.83,0,0,1,.51,1.36v9.83h8a1.63,1.63,0,0,1,1.18.46,1.76,1.76,0,0,1,0,2.35,1.62,1.62,0,0,1-1.18.45h-8v17a7.81,7.81,0,0,0,2.17,5.7,7.54,7.54,0,0,0,5.62,2.2h1.33A1.79,1.79,0,0,1,271,235.75Z" transform="translate(-87 -191.77)"/><path class="cls-1" d="M87.87,301.21A3,3,0,0,1,87,299V272.14a3,3,0,0,1,.87-2.23,3.07,3.07,0,0,1,2.21-.84,2.9,2.9,0,0,1,3.08,3.07V299a3.08,3.08,0,0,1-.85,2.21,3,3,0,0,1-2.23.87A3,3,0,0,1,87.87,301.21Z" transform="translate(-87 -191.77)"/><path class="cls-1" d="M128.53,270.58a12.71,12.71,0,0,1,5.19,5.28,17.47,17.47,0,0,1,1.87,8.36v14.84a3.08,3.08,0,1,1-6.16,0V284.22q0-4.89-2.62-7.4a9.69,9.69,0,0,0-7-2.5,10.33,10.33,0,0,0-4.61,1,8.18,8.18,0,0,0-3.26,2.78,6.85,6.85,0,0,0-1.18,3.92v17a3.06,3.06,0,0,1-.84,2.21,3.1,3.1,0,0,1-5.32-2.21V272.14a3,3,0,0,1,.88-2.23,3.06,3.06,0,0,1,5.28,2.23v.67a13.51,13.51,0,0,1,4.59-3,16,16,0,0,1,13.16.76Z" transform="translate(-87 -191.77)"/><path class="cls-1" d="M170.6,270.48a2.49,2.49,0,0,1,.12,2.57l-12.8,27a2.94,2.94,0,0,1-2.78,2,3,3,0,0,1-1.69-.45,4,4,0,0,1-1.2-1.54l-12.8-27a2.39,2.39,0,0,1-.24-1.09,2.66,2.66,0,0,1,1.69-2.47,2.56,2.56,0,0,1,1.27-.3,2.74,2.74,0,0,1,1.39.39,2.58,2.58,0,0,1,1,1.12l10.5,22.63,10.39-22.63a2.53,2.53,0,0,1,1.05-1.12,3,3,0,0,1,1.48-.39,3.09,3.09,0,0,1,1.39.3A2.91,2.91,0,0,1,170.6,270.48Z" transform="translate(-87 -191.77)"/><path class="cls-1" d="M204.7,287a2.73,2.73,0,0,1-2,.76H179.77a10.65,10.65,0,0,0,3.83,6.82,12.29,12.29,0,0,0,11.53,1.93,11.2,11.2,0,0,0,3.23-1.63,3.14,3.14,0,0,1,2-.66,2.58,2.58,0,0,1,1.81.6,2.62,2.62,0,0,1,1.09,2.05,2.18,2.18,0,0,1-1,1.81,16.73,16.73,0,0,1-5.11,2.66,18.47,18.47,0,0,1-14.69-1.12,15.57,15.57,0,0,1-6.13-5.94,16.92,16.92,0,0,1-2.2-8.63,17.87,17.87,0,0,1,2.08-8.67,15.12,15.12,0,0,1,5.79-6,16.55,16.55,0,0,1,8.42-2.14,15.15,15.15,0,0,1,8,2.05,13.47,13.47,0,0,1,5.19,5.73,18.88,18.88,0,0,1,1.81,8.45A2.52,2.52,0,0,1,204.7,287Zm-21.4-10.53a10.82,10.82,0,0,0-3.47,6.46h20.1a10.68,10.68,0,0,0-3-6.46,8.85,8.85,0,0,0-6.46-2.41A10.44,10.44,0,0,0,183.3,276.43Z" transform="translate(-87 -191.77)"/><path class="cls-1" d="M237.23,270.58a12.65,12.65,0,0,1,5.19,5.28,17.35,17.35,0,0,1,1.87,8.36v14.84a3.08,3.08,0,1,1-6.15,0V284.22q0-4.89-2.63-7.4a9.67,9.67,0,0,0-7-2.5,10.37,10.37,0,0,0-4.62,1,8.25,8.25,0,0,0-3.26,2.78,6.92,6.92,0,0,0-1.17,3.92v17a3.06,3.06,0,0,1-.85,2.21,3.1,3.1,0,0,1-5.31-2.21V272.14a3,3,0,0,1,.88-2.23,3.07,3.07,0,0,1,5.28,2.23v.67a13.37,13.37,0,0,1,4.58-3,16,16,0,0,1,13.16.76Z" transform="translate(-87 -191.77)"/><path class="cls-1" d="M270.4,296.89a3.16,3.16,0,0,1,.75,2.17,2.74,2.74,0,0,1-1,2.18,3.86,3.86,0,0,1-2.57.84h-1.08a9.91,9.91,0,0,1-5.41-1.54,10.69,10.69,0,0,1-3.83-4.19,12.65,12.65,0,0,1-1.39-6V275.46h-2.77a2.94,2.94,0,0,1-2.06-.72,2.37,2.37,0,0,1-.78-1.81,2.49,2.49,0,0,1,.78-1.93,3,3,0,0,1,2.06-.73h2.77v-8.69a3,3,0,1,1,6,0v8.69h5.13a2.92,2.92,0,0,1,2.05.73,2.5,2.5,0,0,1,.79,1.93,2.38,2.38,0,0,1-.79,1.81,2.91,2.91,0,0,1-2.05.72h-5.13v14.91a6.19,6.19,0,0,0,1.33,4.05,4.07,4.07,0,0,0,3.26,1.63h2.05A2.38,2.38,0,0,1,270.4,296.89Z" transform="translate(-87 -191.77)"/><path class="cls-1" d="M280.18,301.21a3,3,0,0,1-.88-2.21V272.14a3,3,0,0,1,.88-2.23,3.07,3.07,0,0,1,5.28,2.23V299a3,3,0,0,1-.85,2.21,3.25,3.25,0,0,1-4.43,0Z" transform="translate(-87 -191.77)"/><path class="cls-1" d="M303.26,300.18a15.2,15.2,0,0,1-5.91-5.94,18.85,18.85,0,0,1,0-17.33,15.2,15.2,0,0,1,5.91-5.94,17.26,17.26,0,0,1,8.63-2.14,17,17,0,0,1,8.55,2.14,15.47,15.47,0,0,1,5.91,5.94,18.73,18.73,0,0,1,0,17.33,15.26,15.26,0,0,1-5.88,5.94,18.43,18.43,0,0,1-17.24,0Zm14.16-4.74a10,10,0,0,0,3.8-4,12.19,12.19,0,0,0,1.36-5.82,12.38,12.38,0,0,0-1.36-5.86,9.94,9.94,0,0,0-3.8-4,11.25,11.25,0,0,0-11.05,0,10.08,10.08,0,0,0-3.83,4,12.17,12.17,0,0,0-1.39,5.86,12,12,0,0,0,1.39,5.82,10.13,10.13,0,0,0,3.83,4,11.25,11.25,0,0,0,11.05,0Z" transform="translate(-87 -191.77)"/><path class="cls-1" d="M361.57,270.58a12.71,12.71,0,0,1,5.19,5.28,17.35,17.35,0,0,1,1.87,8.36v14.84a3.08,3.08,0,1,1-6.15,0V284.22q0-4.89-2.63-7.4a9.67,9.67,0,0,0-7-2.5,10.37,10.37,0,0,0-4.62,1,8.25,8.25,0,0,0-3.26,2.78,6.93,6.93,0,0,0-1.18,3.92v17a3.06,3.06,0,0,1-.84,2.21,3,3,0,0,1-2.23.87,3,3,0,0,1-3.08-3.08V272.14a3,3,0,0,1,.87-2.23,3.07,3.07,0,0,1,2.21-.84,2.89,2.89,0,0,1,3.07,3.07v.67a13.51,13.51,0,0,1,4.59-3,16,16,0,0,1,13.16.76Z" transform="translate(-87 -191.77)"/><path class="cls-1" d="M383.12,301.06a14.85,14.85,0,0,1-5.68-3.32,2.58,2.58,0,0,1-.78-1.87,2.81,2.81,0,0,1,1.21-2.36,3.64,3.64,0,0,1,2.11-.84,3.23,3.23,0,0,1,2.29,1.08,9.38,9.38,0,0,0,3.44,2.21,12.9,12.9,0,0,0,4.89.93,10.39,10.39,0,0,0,5.34-1.14,3.47,3.47,0,0,0,1.9-3.08,3.63,3.63,0,0,0-1.87-3.11,18.16,18.16,0,0,0-6.33-2.08q-11.59-2.24-11.59-9.54a7.45,7.45,0,0,1,1.75-5,10.62,10.62,0,0,1,4.58-3.08,17.78,17.78,0,0,1,6-1,18.55,18.55,0,0,1,7,1.26,12.18,12.18,0,0,1,4.92,3.5,3.11,3.11,0,0,1,.79,1.93,2.45,2.45,0,0,1-1,1.88,2.82,2.82,0,0,1-1.69.48,4.11,4.11,0,0,1-2.84-1.15,9,9,0,0,0-3.2-2,12.87,12.87,0,0,0-4.1-.57,9.84,9.84,0,0,0-4.56.93,2.9,2.9,0,0,0-1.78,2.63,3.25,3.25,0,0,0,.61,2,5.32,5.32,0,0,0,2.29,1.51,29.35,29.35,0,0,0,4.89,1.36q6.57,1.32,9.32,3.68a7.66,7.66,0,0,1,2.75,6.1,8.86,8.86,0,0,1-1.51,5,10.13,10.13,0,0,1-4.44,3.56,17.34,17.34,0,0,1-7,1.29A23.32,23.32,0,0,1,383.12,301.06Z" transform="translate(-87 -191.77)"/><rect class="cls-2" x="330.55" y="96.1" width="14.45" height="14.45"/></svg>